<svg width="10" height="10" viewBox="0 0 10 10" fill="none" xmlns="http://www.w3.org/2000/svg">
<path d="M1.89206 2.06557V7.935C1.89172 8.16672 1.95702 8.3938 2.08038 8.58995C2.20375 8.7861 2.38014 8.9433 2.58914 9.04336C2.83712 9.1605 3.11302 9.20561 3.3854 9.17357C3.65777 9.14152 3.91567 9.03361 4.12969 8.86212L7.68481 5.92741C7.8177 5.81224 7.92427 5.66985 7.99731 5.50989C8.07035 5.34993 8.10815 5.17614 8.10815 5.00029C8.10815 4.82444 8.07035 4.65065 7.99731 4.49069C7.92427 4.33073 7.8177 4.18834 7.68481 4.07317L4.12969 1.13845C3.91567 0.966966 3.65777 0.859052 3.3854 0.827008C3.11302 0.794964 2.83712 0.84008 2.58914 0.957213C2.38014 1.05727 2.20375 1.21448 2.08038 1.41063C1.95702 1.60678 1.89172 1.83385 1.89206 2.06557Z" fill="black"/>
</svg>
