<svg width="19" height="18" viewBox="0 0 19 18" fill="none" xmlns="http://www.w3.org/2000/svg">
<path fill-rule="evenodd" clip-rule="evenodd" d="M2.95161 2.625C1.87377 2.625 1 3.49877 1 4.57661V13.0336C1 14.1114 1.87377 14.9852 2.95161 14.9852H15.5484C16.6262 14.9852 17.5 14.1115 17.5 13.0336V4.57661C17.5 3.49877 16.6262 2.625 15.5484 2.625H2.95161ZM6.7269 4.81282L6.00614 4.44634L6.35466 5.20377L5.80652 5.80341L6.591 5.6904L6.9766 6.4465L7.12041 5.60241L7.89326 5.4569L7.20112 5.06683L7.31117 4.22261L6.7269 4.81282ZM8.7764 6.75737L9.1255 5.99968L8.4045 6.36679L7.81916 5.7765L7.93028 6.62028L7.23719 7.01034L8.01113 7.15588L8.15497 8.00115L8.54055 7.24403L9.32466 7.35815L8.7764 6.75737ZM8.52509 8.62696L8.25723 7.81584L7.98837 8.62695L7.20037 8.64419L7.82828 9.14406L7.59587 9.95465L8.25691 9.47102L8.91874 9.95523L8.68515 9.14397L9.31294 8.64419L8.52509 8.62696ZM6.7269 10.0966L6.00614 9.73015L6.35466 10.4876L5.80652 11.0872L6.591 10.9742L6.9766 11.7303L7.12041 10.8862L7.89326 10.7407L7.20112 10.3506L7.31117 9.50643L6.7269 10.0966ZM4.91456 7.12261L4.31422 5.30816L3.71388 7.12261L1.91637 7.16139L3.34919 8.30325L2.82308 10.1306L4.31422 9.03984L5.80537 10.1306L5.27926 8.30325L6.71207 7.16139L4.91456 7.12261Z" fill="black"/>
</svg>
