<svg width="24" height="24" viewBox="0 0 24 24" fill="none" xmlns="http://www.w3.org/2000/svg">
<path d="M2 20.4857V9.17143C2 8.77333 2.08926 8.39619 2.26777 8.04C2.44629 7.68381 2.69227 7.39047 3.00571 7.16L10.5486 1.50286C10.9886 1.16762 11.4914 1 12.0571 1C12.6229 1 13.1257 1.16762 13.5657 1.50286L21.1086 7.16C21.4229 7.39047 21.6693 7.68381 21.8478 8.04C22.0263 8.39619 22.1151 8.77333 22.1143 9.17143V20.4857C22.1143 21.1771 21.8679 21.7693 21.3751 22.2621C20.8823 22.7549 20.2906 23.0008 19.6 23H15.8286C15.4724 23 15.174 22.8793 14.9335 22.6379C14.6929 22.3966 14.5723 22.0982 14.5714 21.7429V15.4571C14.5714 15.1009 14.4507 14.8026 14.2094 14.5621C13.968 14.3215 13.6696 14.2008 13.3143 14.2H10.8C10.4438 14.2 10.1454 14.3207 9.90491 14.5621C9.66438 14.8034 9.54369 15.1018 9.54286 15.4571V21.7429C9.54286 22.099 9.42217 22.3978 9.1808 22.6392C8.93943 22.8806 8.64106 23.0008 8.28571 23H4.51429C3.82286 23 3.23116 22.754 2.7392 22.2621C2.24724 21.7701 2.00084 21.178 2 20.4857Z" fill="black"/>
</svg>
