<svg width="18" height="18" viewBox="0 0 18 18" fill="none" xmlns="http://www.w3.org/2000/svg">
<g clip-path="url(#clip0_6328_24361)">
<path d="M16.4996 16.4998L12.8805 12.8808M12.8805 12.8808C13.4996 12.2617 13.9906 11.5268 14.3257 10.7179C14.6607 9.90909 14.8331 9.04218 14.8331 8.16669C14.8331 7.29121 14.6607 6.4243 14.3257 5.61546C13.9906 4.80662 13.4996 4.07169 12.8805 3.45263C12.2615 2.83357 11.5265 2.3425 10.7177 2.00747C9.90884 1.67244 9.04193 1.5 8.16645 1.5C7.29097 1.5 6.42406 1.67244 5.61522 2.00747C4.80638 2.3425 4.07144 2.83357 3.45238 3.45263C2.20214 4.70288 1.49976 6.39858 1.49976 8.16669C1.49976 9.93481 2.20214 11.6305 3.45238 12.8808C4.70263 14.131 6.39833 14.8334 8.16645 14.8334C9.93457 14.8334 11.6303 14.131 12.8805 12.8808Z" stroke="black" stroke-width="2" stroke-linecap="round" stroke-linejoin="round"/>
</g>
<defs>
<clipPath id="clip0_6328_24361">
<rect width="18" height="18" fill="white"/>
</clipPath>
</defs>
</svg>
