<svg width="20" height="20" viewBox="0 0 20 20" fill="none" xmlns="http://www.w3.org/2000/svg">
<path fill-rule="evenodd" clip-rule="evenodd" d="M1.29175 3.74583C1.29175 3.51487 1.3835 3.29337 1.54681 3.13006C1.71012 2.96675 1.93162 2.875 2.16258 2.875H8.25841C8.48935 2.87505 8.71082 2.96683 8.87409 3.13015V3.13015C9.82589 4.08195 11.1168 4.61667 12.4629 4.61667H17.8376C18.0685 4.61667 18.29 4.70842 18.4534 4.87173C18.6167 5.03504 18.7084 5.25654 18.7084 5.4875V14.1958C18.7084 14.8887 18.4332 15.5532 17.9432 16.0432C17.4533 16.5331 16.7888 16.8083 16.0959 16.8083H3.90425C3.21137 16.8083 2.54687 16.5331 2.05693 16.0432C1.56699 15.5532 1.29175 14.8887 1.29175 14.1958V3.74583ZM12.1772 11.4666C12.3095 11.3902 12.4195 11.2803 12.4959 11.1479C12.5723 11.0155 12.6125 10.8654 12.6125 10.7125C12.6125 10.5596 12.5723 10.4095 12.4959 10.2771C12.4195 10.1447 12.3095 10.0348 12.1772 9.95836L9.56466 8.45008C9.43228 8.37364 9.28211 8.33341 9.12925 8.33341C8.97639 8.3334 8.82622 8.37364 8.69384 8.45007C8.56146 8.5265 8.45153 8.63643 8.37509 8.76881C8.29866 8.90119 8.25842 9.05136 8.25841 9.20422V12.2208C8.25842 12.3736 8.29866 12.5238 8.37509 12.6562C8.45153 12.7886 8.56146 12.8985 8.69384 12.9749C8.82622 13.0514 8.97639 13.0916 9.12925 13.0916C9.28211 13.0916 9.43228 13.0514 9.56466 12.9749L12.1772 11.4666Z" fill="black"/>
</svg>
