<svg width="18" height="18" viewBox="0 0 18 18" fill="none" xmlns="http://www.w3.org/2000/svg">
<path d="M15.7796 12.142C15.7184 12.0683 15.6584 11.9947 15.5995 11.9236C14.7892 10.9435 14.299 10.352 14.299 7.57761C14.299 6.14123 13.9554 4.96266 13.2781 4.07873C12.7786 3.42573 12.1035 2.93036 11.2137 2.56426C11.2023 2.55789 11.192 2.54954 11.1835 2.53959C10.8635 1.46782 9.98764 0.75 8.99985 0.75C8.01206 0.75 7.1366 1.46782 6.81654 2.53848C6.80802 2.54808 6.79793 2.55618 6.78671 2.56242C4.71022 3.41725 3.70106 5.05731 3.70106 7.57651C3.70106 10.352 3.21159 10.9435 2.40058 11.9225C2.34166 11.9936 2.28162 12.0658 2.22048 12.1409C2.06256 12.3314 1.9625 12.5631 1.93214 12.8086C1.90179 13.0542 1.94242 13.3033 2.04922 13.5265C2.27647 14.0052 2.76079 14.3025 3.31361 14.3025H14.6901C15.2404 14.3025 15.7214 14.0056 15.9494 13.529C16.0566 13.3058 16.0976 13.0565 16.0676 12.8107C16.0375 12.5648 15.9375 12.3328 15.7796 12.142ZM8.99985 17.25C9.53206 17.2496 10.0542 17.1051 10.511 16.8319C10.9677 16.5587 11.342 16.167 11.5942 15.6983C11.6061 15.6759 11.6119 15.6507 11.6112 15.6253C11.6105 15.5999 11.6032 15.5751 11.5901 15.5534C11.577 15.5316 11.5585 15.5136 11.5363 15.5011C11.5142 15.4887 11.4892 15.4821 11.4638 15.4821H6.53663C6.51119 15.4821 6.48616 15.4886 6.46398 15.501C6.4418 15.5135 6.42322 15.5315 6.41006 15.5532C6.39689 15.575 6.38959 15.5998 6.38886 15.6252C6.38813 15.6507 6.39399 15.6758 6.40589 15.6983C6.658 16.167 7.03224 16.5586 7.48892 16.8318C7.9456 17.105 8.4677 17.2495 8.99985 17.25Z" fill="currentColor"/>
</svg>
