<svg width="18" height="18" viewBox="0 0 18 18" fill="none" xmlns="http://www.w3.org/2000/svg">
<path d="M17.25 12.5966C17.25 12.7841 17.2088 12.9716 17.1263 13.1441C17.0465 13.3169 16.9317 13.4746 16.788 13.6091C16.6387 13.7373 16.4654 13.8416 16.2765 13.9166C16.0827 13.9883 15.8752 14.024 15.666 14.0216C14.7323 14.0072 13.7998 14.0877 12.8858 14.2616C11.8026 14.3777 10.7592 14.7024 9.82501 15.2141V4.03157C10.7251 3.64157 11.6895 3.38807 12.6795 3.28157C13.6871 3.09975 14.7132 3.01678 15.7403 3.03407C16.1494 3.05472 16.5338 3.2187 16.8128 3.49157C17.085 3.75557 17.236 4.10432 17.2335 4.46657L17.25 12.5966ZM8.17501 4.03157V15.2141C7.25623 14.7074 6.23009 14.3828 5.16377 14.2616C4.23258 14.0904 3.28397 14.0099 2.33402 14.0216C2.12486 14.024 1.91728 13.9883 1.72352 13.9166C1.53507 13.8412 1.36211 13.7372 1.21202 13.6091C1.06492 13.4772 0.94971 13.3188 0.873775 13.1441C0.790964 12.9714 0.748811 12.7849 0.750026 12.5966V4.42157C0.751325 4.06002 0.903749 3.71244 1.17642 3.44924C1.44909 3.18604 1.82161 3.02691 2.21852 3.00407C3.26768 2.97996 4.31649 3.06298 5.34527 3.25157C6.33005 3.36508 7.28672 3.62878 8.17501 4.03157Z" fill="black"/>
</svg>
