<svg width="18" height="18" viewBox="0 0 18 18" fill="none" xmlns="http://www.w3.org/2000/svg">
<g clip-path="url(#clip0_6327_24357)">
<path d="M4.7089 14.0919C5.88686 15.2699 7.43685 16.003 9.09473 16.1662C10.7526 16.3294 12.4158 15.9126 13.8008 14.987C15.1859 14.0613 16.2071 12.684 16.6904 11.0897C17.1737 9.4955 17.0893 7.78299 16.4514 6.24404C15.8136 4.70509 14.6618 3.43494 13.1924 2.65004C11.723 1.86514 10.0269 1.61406 8.39315 1.9396C6.75937 2.26513 5.28903 3.14712 4.23268 4.43528C3.17634 5.72344 2.59937 7.33804 2.6001 9.00393V10.6007" stroke="currentColor" stroke-width="2" stroke-linecap="round" stroke-linejoin="round"/>
<path d="M1 9.00078L2.6 10.6008L4.2 9.00078M9 5.80078V9.80078H13" stroke="currentColor" stroke-width="2" stroke-linecap="round" stroke-linejoin="round"/>
</g>
<defs>
<clipPath id="clip0_6327_24357">
<rect width="18" height="18" fill="white"/>
</clipPath>
</defs>
</svg>
