<svg width="18" height="18" viewBox="0 0 18 18" fill="none" xmlns="http://www.w3.org/2000/svg">
<path fill-rule="evenodd" clip-rule="evenodd" d="M9 2.20122C8.45 1.78322 7.9 1.57422 7.35 1.57422H2.4C1.96239 1.57422 1.54271 1.74806 1.23327 2.05749C0.923839 2.36693 0.75 2.78661 0.75 3.22422V13.9492C0.75 14.3868 0.923839 14.8065 1.23327 15.1159C1.54271 15.4254 1.96239 15.5992 2.4 15.5992H8.175C8.175 16.053 8.54625 16.4242 9 16.4242C9.45375 16.4242 9.825 16.0546 9.825 15.5992H15.6C16.0376 15.5992 16.4573 15.4254 16.7667 15.1159C17.0762 14.8065 17.25 14.3868 17.25 13.9492V3.22422C17.25 2.78661 17.0762 2.36693 16.7667 2.05749C16.4573 1.74806 16.0376 1.57422 15.6 1.57422H10.65C10.1 1.57422 9.55 1.78322 9 2.20122ZM14.0875 7.34834C13.8279 7.34834 13.5874 7.26186 13.3989 7.10947C13.4074 7.13781 13.4144 7.16678 13.4198 7.1963C13.5756 7.25654 13.7095 7.36241 13.8041 7.50004C13.8987 7.63768 13.9495 7.80067 13.9499 7.96768C13.9499 8.18648 13.863 8.39632 13.7083 8.55104C13.5535 8.70576 13.3437 8.79268 13.1249 8.79268L12.9661 8.77824C12.8155 8.91436 12.6196 8.99893 12.403 8.99893C12.1576 8.99893 11.9348 8.8958 11.7843 8.72049C11.6337 8.8958 11.411 8.99893 11.1655 8.99893C10.7613 8.99893 10.4251 8.70811 10.355 8.32655C10.1992 8.26631 10.0653 8.16045 9.97067 8.02281C9.87609 7.88517 9.82528 7.72218 9.82489 7.55518C9.82489 7.33637 9.91181 7.12653 10.0665 6.97181C10.2212 6.81709 10.4311 6.73018 10.6499 6.73018C10.7035 6.73018 10.753 6.73636 10.8087 6.74461C10.9593 6.60849 11.1552 6.52393 11.3718 6.52393L11.3725 6.52393C11.3665 6.50019 11.3612 6.47616 11.3567 6.45184C11.149 6.37152 10.9704 6.23037 10.8443 6.04685C10.7182 5.86333 10.6505 5.64601 10.65 5.42334C10.65 5.1316 10.7659 4.85181 10.9721 4.64552C11.1784 4.43923 11.4582 4.32334 11.75 4.32334C11.8215 4.32334 11.8875 4.33159 11.9617 4.34259C12.1625 4.16109 12.4237 4.04834 12.7125 4.04834C13.0397 4.04834 13.3367 4.18584 13.5375 4.41959C13.7382 4.18584 14.0352 4.04834 14.3625 4.04834C14.9015 4.04834 15.3497 4.43609 15.4432 4.94484C15.6509 5.02516 15.8295 5.16631 15.9556 5.34983C16.0817 5.53335 16.1494 5.75067 16.15 5.97334C16.15 6.26508 16.0341 6.54487 15.8278 6.75116C15.6215 6.95745 15.3417 7.07334 15.05 7.07334L14.8382 7.05409C14.6375 7.23559 14.3762 7.34834 14.0875 7.34834ZM3.10415 12.6942C3.02679 12.6168 2.92187 12.5733 2.81246 12.5733C2.70306 12.5733 2.59814 12.6168 2.52078 12.6942C2.44342 12.7715 2.39996 12.8764 2.39996 12.9858C2.39996 13.0952 2.44342 13.2002 2.52078 13.2775C2.59814 13.3549 2.70306 13.3983 2.81246 13.3983C2.92187 13.3983 3.02679 13.3549 3.10415 13.2775C3.1815 13.2002 3.22496 13.0952 3.22496 12.9858C3.22496 12.8764 3.1815 12.7715 3.10415 12.6942ZM4.6736 11.9497C4.54467 11.8208 4.3698 11.7483 4.18746 11.7483C4.00513 11.7483 3.83026 11.8208 3.70133 11.9497C3.5724 12.0786 3.49996 12.2535 3.49996 12.4358C3.49996 12.6182 3.5724 12.793 3.70133 12.922C3.83026 13.0509 4.00513 13.1233 4.18746 13.1233C4.3698 13.1233 4.54467 13.0509 4.6736 12.922C4.80253 12.793 4.87496 12.6182 4.87496 12.4358C4.87496 12.2535 4.80253 12.0786 4.6736 11.9497ZM5.01246 11.1021C5.21321 11.3358 5.51021 11.4733 5.83746 11.4733C6.12621 11.4733 6.38746 11.3606 6.58821 11.1791L6.79996 11.1983C7.0917 11.1983 7.37149 11.0824 7.57778 10.8762C7.78407 10.6699 7.89996 10.3901 7.89996 10.0983C7.89944 9.87567 7.83169 9.65835 7.70559 9.47483C7.57948 9.29131 7.40089 9.15016 7.19321 9.06984C7.09971 8.56109 6.65146 8.17334 6.11246 8.17334C5.78521 8.17334 5.48821 8.31084 5.28746 8.54459C5.08671 8.31084 4.78971 8.17334 4.46246 8.17334C4.17371 8.17334 3.91246 8.28609 3.71171 8.46759C3.63746 8.45659 3.57146 8.44834 3.49996 8.44834C3.20823 8.44834 2.92844 8.56423 2.72215 8.77052C2.51586 8.97681 2.39996 9.2566 2.39996 9.54834C2.40048 9.77101 2.46823 9.98833 2.59434 10.1718C2.72045 10.3554 2.89903 10.4965 3.10671 10.5768C3.20021 11.0856 3.64846 11.4733 4.18746 11.4733C4.51471 11.4733 4.81171 11.3358 5.01246 11.1021Z" fill="currentColor"/>
</svg>
