<svg width="19" height="18" viewBox="0 0 19 18" fill="none" xmlns="http://www.w3.org/2000/svg">
<path fill-rule="evenodd" clip-rule="evenodd" d="M16.0475 2.625C17.1258 2.625 18 3.49916 18 4.5775V13.0327C18 14.1111 17.1258 14.9852 16.0475 14.9852H3.4525C2.37416 14.9852 1.5 14.1111 1.5 13.0327V4.5775C1.5 3.49916 2.37416 2.625 3.4525 2.625H16.0475ZM8.9096 9.48189C9.26875 9.38121 9.6144 9.09028 9.80821 8.76841L9.82277 8.74368L9.82279 8.74365C10.0247 8.42967 10.3394 8.20452 10.7026 8.11512C11.0751 8.02342 11.4687 8.08187 11.7985 8.27785C12.1283 8.47382 12.3678 8.79161 12.4654 9.16262C12.5628 9.53345 12.5107 9.92772 12.3202 10.2604C12.32 10.2607 12.3201 10.2611 12.3204 10.2613C12.3206 10.2615 12.3207 10.2618 12.3206 10.2621C12.2467 10.3934 12.1631 10.5186 12.0704 10.6365L12.0613 10.648L12.0473 10.6656C11.9093 10.8366 11.7522 10.992 11.5786 11.1285C11.2767 11.3659 10.9309 11.5415 10.5611 11.6453C10.4601 11.6736 10.3581 11.6964 10.2555 11.7137C10.1478 11.7257 10.0383 11.7318 9.92742 11.7318C8.31065 11.7318 7 10.4212 7 8.80442C7 8.70119 7.00534 8.59922 7.01577 8.49875C7.02121 8.44624 7.10109 8.44646 7.11634 8.497C7.16316 8.65221 7.23498 8.79701 7.32773 8.92637C7.45383 9.10226 7.61861 9.24959 7.81182 9.3557C8.14712 9.53985 8.54125 9.58516 8.9096 9.48189ZM7.58715 7.35568C7.50667 7.84515 7.53614 8.19926 7.58345 8.35609C7.65704 8.60004 7.82336 8.80539 8.04669 8.92805C8.27003 9.05071 8.53255 9.08088 8.7779 9.0121C9.00568 8.94825 9.26309 8.73819 9.39983 8.50043L9.40586 8.48994L9.41241 8.47977C9.68175 8.06094 10.1015 7.76061 10.586 7.64136C11.0829 7.51905 11.6079 7.59701 12.0478 7.85841C12.2796 7.9962 12.6985 7.82028 12.5852 7.57553C12.1207 6.57266 11.1053 5.877 9.92742 5.877C9.17988 5.877 8.49778 6.15719 7.98042 6.61829C7.76661 6.80885 7.63361 7.07307 7.58715 7.35568ZM13.6109 4.43033C13.5476 4.32072 13.4074 4.28317 13.2978 4.34646C13.1882 4.40974 13.1506 4.5499 13.2139 4.6595L13.5392 5.22287C13.6025 5.33248 13.7426 5.37003 13.8522 5.30675C13.9618 5.24346 13.9994 5.10331 13.9361 4.9937L13.6109 4.43033ZM5.65347 4.6595C5.71676 4.5499 5.6792 4.40974 5.5696 4.34646C5.45999 4.28317 5.31983 4.32072 5.25655 4.43033L4.28074 6.12043C4.21746 6.23004 4.25501 6.37019 4.36462 6.43348C4.47423 6.49676 4.61438 6.45921 4.67767 6.3496L5.65347 4.6595ZM6.21684 4.98477C6.28012 4.87516 6.24257 4.73501 6.13296 4.67172C6.02336 4.60844 5.8832 4.64599 5.81991 4.7556L4.84411 6.4457C4.78082 6.55531 4.81838 6.69546 4.92798 6.75875C5.03759 6.82203 5.17775 6.78448 5.24103 6.67487L6.21684 4.98477ZM13.0475 4.7556C12.9842 4.64599 12.844 4.60844 12.7344 4.67172C12.6248 4.73501 12.5873 4.87516 12.6506 4.98477L13.6264 6.67487C13.6896 6.78448 13.8298 6.82203 13.9394 6.75875C14.049 6.69546 14.0866 6.55531 14.0233 6.4457L13.0475 4.7556ZM12.4841 5.08087C12.4208 4.97126 12.2807 4.93371 12.1711 4.99699C12.0615 5.06028 12.0239 5.20043 12.0872 5.31004L12.4125 5.87341C12.4757 5.98302 12.6159 6.02057 12.7255 5.95728C12.8351 5.894 12.8727 5.75384 12.8094 5.64424L12.4841 5.08087ZM6.78021 5.31004C6.84349 5.20043 6.80594 5.06028 6.69633 4.99699C6.58672 4.93371 6.44656 4.97126 6.38328 5.08087L5.40747 6.77097C5.34419 6.88057 5.38174 7.02073 5.49135 7.08402C5.60096 7.1473 5.74112 7.10975 5.8044 7.00014L6.78021 5.31004ZM14.2614 5.55706C14.1981 5.44746 14.0579 5.4099 13.9483 5.47319C13.8387 5.53647 13.8012 5.67663 13.8645 5.78623L14.1897 6.3496C14.253 6.45921 14.3932 6.49676 14.5028 6.43348C14.6124 6.37019 14.6499 6.23004 14.5867 6.12043L14.2614 5.55706ZM13.1347 6.2076C13.0714 6.09799 12.9312 6.06044 12.8216 6.12372C12.712 6.18701 12.6744 6.32716 12.7377 6.43677L13.063 7.00014C13.1263 7.10975 13.2664 7.1473 13.376 7.08402C13.4857 7.02073 13.5232 6.88057 13.4599 6.77097L13.1347 6.2076ZM5.8044 10.6104C5.74112 10.5008 5.60096 10.4633 5.49135 10.5266C5.38174 10.5898 5.34419 10.73 5.40747 10.8396L6.38328 12.5297C6.44656 12.6393 6.58672 12.6769 6.69633 12.6136C6.80594 12.5503 6.84349 12.4101 6.78021 12.3005L5.8044 10.6104ZM13.1347 10.8396C13.1979 10.73 13.1604 10.5898 13.0508 10.5266C12.9412 10.4633 12.801 10.5008 12.7377 10.6104L12.4125 11.1738C12.3492 11.2834 12.3867 11.4236 12.4963 11.4869C12.6059 11.5501 12.7461 11.5126 12.8094 11.403L13.1347 10.8396ZM5.24103 10.9357C5.17775 10.8261 5.03759 10.7885 4.92798 10.8518C4.81838 10.9151 4.78082 11.0553 4.84411 11.1649L5.16938 11.7282C5.23266 11.8379 5.37282 11.8754 5.48243 11.8121C5.59203 11.7488 5.62959 11.6087 5.5663 11.4991L5.24103 10.9357ZM13.698 11.1649C13.7613 11.0553 13.7238 10.9151 13.6141 10.8518C13.5045 10.7885 13.3644 10.8261 13.3011 10.9357L12.9758 11.4991C12.9125 11.6087 12.9501 11.7488 13.0597 11.8121C13.1693 11.8754 13.3095 11.8379 13.3728 11.7282L13.698 11.1649ZM4.67767 11.261C4.61438 11.1514 4.47423 11.1138 4.36462 11.1771C4.25501 11.2404 4.21746 11.3805 4.28074 11.4901L5.25655 13.1802C5.31983 13.2899 5.45999 13.3274 5.5696 13.2641C5.6792 13.2008 5.71676 13.0607 5.65347 12.9511L4.67767 11.261ZM14.2614 11.4901C14.3247 11.3805 14.2871 11.2404 14.1775 11.1771C14.0679 11.1138 13.9277 11.1514 13.8645 11.261L13.5392 11.8243C13.4759 11.934 13.5135 12.0741 13.6231 12.1374C13.7327 12.2007 13.8728 12.1631 13.9361 12.0535L14.2614 11.4901ZM12.4841 11.9663C12.5474 11.8567 12.5099 11.7166 12.4002 11.6533C12.2906 11.59 12.1505 11.6276 12.0872 11.7372L11.7619 12.3005C11.6986 12.4101 11.7362 12.5503 11.8458 12.6136C11.9554 12.6769 12.0956 12.6393 12.1589 12.5297L12.4841 11.9663ZM5.89157 12.0624C5.82829 11.9528 5.68813 11.9153 5.57852 11.9786C5.46891 12.0418 5.43136 12.182 5.49465 12.2916L5.81991 12.855C5.8832 12.9646 6.02336 13.0021 6.13296 12.9389C6.24257 12.8756 6.28012 12.7354 6.21684 12.6258L5.89157 12.0624ZM13.0475 12.2916C13.1108 12.182 13.0732 12.0418 12.9636 11.9786C12.854 11.9153 12.7138 11.9528 12.6506 12.0624L12.3253 12.6258C12.262 12.7354 12.2996 12.8756 12.4092 12.9389C12.5188 13.0021 12.6589 12.9646 12.7222 12.855L13.0475 12.2916ZM13.6109 12.6169C13.6741 12.5073 13.6366 12.3671 13.527 12.3038C13.4174 12.2405 13.2772 12.2781 13.2139 12.3877L12.8887 12.9511C12.8254 13.0607 12.8629 13.2008 12.9725 13.2641C13.0821 13.3274 13.2223 13.2899 13.2856 13.1802L13.6109 12.6169Z" fill="black"/>
</svg>
