<svg width="18" height="18" viewBox="0 0 18 18" fill="none" xmlns="http://www.w3.org/2000/svg">
<path fill-rule="evenodd" clip-rule="evenodd" d="M2.01923 2.01953H15.9808C16.3174 2.01953 16.6402 2.15325 16.8783 2.39128C17.1163 2.62931 17.25 2.95214 17.25 3.28876V14.7118C17.25 15.0485 17.1163 15.3713 16.8783 15.6093C16.6402 15.8473 16.3174 15.9811 15.9808 15.9811H2.01923C1.68261 15.9811 1.35978 15.8473 1.12175 15.6093C0.883722 15.3713 0.75 15.0485 0.75 14.7118V3.28876C0.75 2.95214 0.883722 2.62931 1.12175 2.39128C1.35978 2.15325 1.68261 2.01953 2.01923 2.01953ZM15.9808 3.28876H13.4423V4.55799H15.9808V3.28876ZM2.01923 14.7118H4.55769V13.4426H2.01923V14.7118ZM2.01923 4.55799H4.55769V3.28876H2.01923V4.55799ZM5.82692 14.7118H8.36538V13.4426H5.82692V14.7118ZM5.82692 4.55799H8.36538V3.28876H5.82692V4.55799ZM9.63461 14.7118H12.1731V13.4426H9.63461V14.7118ZM9.63461 4.55799H12.1731V3.28876H9.63461V4.55799ZM13.4423 14.7118H15.9808V13.4426H13.4423V14.7118ZM11.2375 9.81449C11.161 9.94687 11.0511 10.0568 10.9187 10.1332L8.30625 11.6415C8.17387 11.7179 8.0237 11.7582 7.87084 11.7582C7.71798 11.7582 7.56781 11.718 7.43543 11.6415C7.30304 11.5651 7.19311 11.4552 7.11668 11.3228C7.04025 11.1904 7 11.0402 7 10.8874V7.87081C7 7.71795 7.04025 7.56778 7.11668 7.4354C7.19311 7.30302 7.30304 7.19309 7.43543 7.11666C7.56781 7.04024 7.71798 7 7.87084 7C8.0237 7 8.17387 7.04024 8.30625 7.11667L10.9187 8.62495C11.0511 8.70139 11.161 8.81132 11.2375 8.9437C11.3139 9.07608 11.3541 9.22624 11.3541 9.37909C11.3541 9.53195 11.3139 9.68211 11.2375 9.81449Z" fill="currentColor"/>
</svg>
