<svg width="18" height="18" viewBox="0 0 18 18" fill="none" xmlns="http://www.w3.org/2000/svg">
<path d="M6.90128 3.81153C7.94653 1.93718 8.46874 1 9.25 1C10.0313 1 10.5535 1.93718 11.5987 3.81153L11.8693 4.29662C12.1663 4.82956 12.3148 5.09603 12.5458 5.27175C12.7768 5.44747 13.0655 5.51264 13.643 5.64299L14.1677 5.76179C16.1972 6.2213 17.2111 6.45065 17.4528 7.22695C17.6937 8.00244 17.0023 8.81174 15.6188 10.4295L15.2608 10.8478C14.8681 11.3073 14.6709 11.5375 14.5827 11.8213C14.4944 12.1059 14.5241 12.4128 14.5835 13.0257L14.6379 13.5843C14.8467 15.7432 14.9514 16.8223 14.3195 17.3016C13.6876 17.7809 12.7372 17.3437 10.8381 16.4692L10.3456 16.2432C9.80604 15.994 9.53627 15.8703 9.25 15.8703C8.96373 15.8703 8.69396 15.994 8.15442 16.2432L7.66274 16.4692C5.76281 17.3437 4.81243 17.7809 4.18132 17.3024C3.54856 16.8223 3.65333 15.7432 3.86205 13.5843L3.9165 13.0266C3.9759 12.4128 4.0056 12.1059 3.9165 11.8221C3.82905 11.5375 3.63188 11.3073 3.23919 10.8486L2.88115 10.4295C1.49766 8.81257 0.806323 8.00326 1.04722 7.22695C1.28811 6.45065 2.30366 6.22048 4.33312 5.76179L4.8578 5.64299C5.43446 5.51264 5.72238 5.44747 5.9542 5.27175C6.18602 5.09603 6.33369 4.82956 6.63069 4.29662L6.90128 3.81153Z" fill="currentColor"/>
</svg>
