<svg width="18" height="18" viewBox="0 0 18 18" fill="none" xmlns="http://www.w3.org/2000/svg">
<g clip-path="url(#clip0_6307_24380)">
<path d="M9.57558 9.38986L16.0988 6.78056V11.1189C15.6322 10.8207 15.0795 10.6863 14.528 10.7369C13.9765 10.7875 13.4575 11.0201 13.0529 11.3983C12.6482 11.7764 12.381 12.2784 12.2932 12.8253C12.2054 13.3721 12.3021 13.9325 12.568 14.4183C12.834 14.9041 13.254 15.2876 13.762 15.5083C14.2699 15.7289 14.8369 15.7743 15.3734 15.6371C15.91 15.5 16.3857 15.1882 16.7254 14.7508C17.0652 14.3135 17.2498 13.7755 17.25 13.2217V5.88802C17.25 5.01084 17.25 4.27563 17.1886 3.6893C17.18 3.60853 17.1697 3.52793 17.1579 3.44756C17.098 3.04695 16.9937 2.67398 16.7903 2.36163C16.666 2.16993 16.5042 2.00545 16.3145 1.87814L16.3091 1.8743C15.7658 1.5136 15.1557 1.53893 14.5271 1.69933C13.9193 1.85435 13.1657 2.16977 12.2417 2.55656L10.6347 3.22884C10.201 3.40995 9.83421 3.56421 9.54642 3.72307C9.23944 3.89191 8.97621 4.09144 8.77821 4.38921C8.58021 4.68698 8.49733 5.007 8.45972 5.35542C8.42442 5.68235 8.42442 6.08065 8.42442 6.55032V12.653C7.95775 12.3548 7.4051 12.2204 6.85359 12.271C6.30209 12.3216 5.78311 12.5543 5.37847 12.9324C4.97383 13.3105 4.70654 13.8126 4.61875 14.3594C4.53096 14.9062 4.62766 15.4667 4.8936 15.9524C5.15954 16.4382 5.5796 16.8217 6.08755 17.0424C6.5955 17.263 7.16245 17.3084 7.69902 17.1713C8.23559 17.0341 8.71125 16.7223 9.05102 16.285C9.3908 15.8476 9.57535 15.3096 9.57558 14.7558V9.38986ZM5.73837 1.32558C5.73837 1.17293 5.67773 1.02653 5.56979 0.918584C5.46185 0.810641 5.31545 0.75 5.16279 0.75C5.01014 0.75 4.86374 0.810641 4.7558 0.918584C4.64785 1.02653 4.58721 1.17293 4.58721 1.32558V5.74605C4.12054 5.44784 3.56789 5.31343 3.01639 5.36401C2.46488 5.41459 1.9459 5.64729 1.54126 6.02541C1.13662 6.40353 0.869332 6.90558 0.781541 7.45239C0.69375 7.99921 0.790447 8.55969 1.05639 9.04547C1.32233 9.53126 1.74239 9.91472 2.25034 10.1354C2.75829 10.3561 3.32524 10.4014 3.86181 10.2643C4.39838 10.1271 4.87404 9.81532 5.21381 9.37798C5.55359 8.94064 5.73814 8.40265 5.73837 7.84884V3.63174C6.27482 4.01853 6.91256 4.20349 7.46512 4.20349C7.61777 4.20349 7.76417 4.14285 7.87212 4.0349C7.98006 3.92696 8.0407 3.78056 8.0407 3.62791C8.0407 3.47525 7.98006 3.32885 7.87212 3.22091C7.76417 3.11297 7.61777 3.05233 7.46512 3.05233C7.0479 3.04232 6.64597 2.89322 6.32317 2.6287C5.9901 2.35472 5.73837 1.938 5.73837 1.32558Z" fill="black"/>
</g>
<defs>
<clipPath id="clip0_6307_24380">
<rect width="18" height="18" fill="white"/>
</clipPath>
</defs>
</svg>
