<svg width="528" height="75" viewBox="0 0 528 75" fill="none" xmlns="http://www.w3.org/2000/svg">
<path d="M7.96 0.799997H51.88C53.9133 0.799997 55.6213 1.532 57.004 2.996C58.468 4.37867 59.2 6.08667 59.2 8.12C59.2 10.1533 58.468 11.902 57.004 13.366C55.6213 14.7487 53.9133 15.44 51.88 15.44H15.28V59.36H66.52C68.5533 59.36 70.2613 60.092 71.644 61.556C73.108 62.9387 73.84 64.6467 73.84 66.68C73.84 68.7133 73.108 70.462 71.644 71.926C70.2613 73.3087 68.5533 74 66.52 74H7.96C5.92667 74 4.178 73.3087 2.714 71.926C1.33133 70.462 0.640001 68.7133 0.640001 66.68V8.12C0.640001 6.08667 1.33133 4.37867 2.714 2.996C4.178 1.532 5.92667 0.799997 7.96 0.799997ZM176.423 7.998V66.558C176.423 68.5913 175.691 70.34 174.227 71.804C172.844 73.1867 171.136 73.878 169.103 73.878H110.543C108.51 73.878 106.761 73.1867 105.297 71.804C103.914 70.34 103.223 68.5913 103.223 66.558V37.4C103.223 34.6347 104.402 32.4793 106.761 30.934L150.071 2.14199C151.535 1.166 153.04 0.677999 154.585 0.677999H169.103C171.136 0.677999 172.844 1.41 174.227 2.874C175.691 4.25666 176.423 5.96466 176.423 7.998ZM161.783 59.238V15.318H156.659L117.863 41.182V59.238H161.783ZM264.241 8.12C264.241 6.08667 264.932 4.37867 266.315 2.996C267.779 1.532 269.528 0.799997 271.561 0.799997C273.594 0.799997 275.302 1.532 276.685 2.996C278.149 4.37867 278.881 6.08667 278.881 8.12V66.436C278.881 68.7133 278.068 70.584 276.441 72.048C274.814 73.512 272.862 74.122 270.585 73.878C269.04 73.7153 267.576 72.9427 266.193 71.56L237.401 43.256C236.018 41.8733 235.205 40.328 234.961 38.62V15.44H220.321V66.68C220.321 68.7133 219.589 70.462 218.125 71.926C216.742 73.3087 215.034 74 213.001 74C210.968 74 209.219 73.3087 207.755 71.926C206.372 70.462 205.681 68.7133 205.681 66.68V8.12C205.681 6.08667 206.372 4.37867 207.755 2.996C209.219 1.532 210.968 0.799997 213.001 0.799997H242.281C244.314 0.799997 246.022 1.532 247.405 2.996C248.869 4.37867 249.601 6.08667 249.601 8.12V34.96L264.241 49.356V8.12ZM308.261 66.68V8.12C308.261 6.08667 308.952 4.37867 310.335 2.996C311.799 1.532 313.548 0.799997 315.581 0.799997C317.614 0.799997 319.322 1.532 320.705 2.996C322.169 4.37867 322.901 6.08667 322.901 8.12V66.68C322.901 68.7133 322.169 70.462 320.705 71.926C319.322 73.3087 317.614 74 315.581 74C313.548 74 311.799 73.3087 310.335 71.926C308.952 70.462 308.261 68.7133 308.261 66.68ZM366.864 66.68C366.864 68.7133 366.132 70.462 364.668 71.926C363.285 73.3087 361.577 74 359.544 74C357.511 74 355.762 73.3087 354.298 71.926C352.915 70.462 352.224 68.7133 352.224 66.68V8.12C352.224 5.924 353.078 4.094 354.786 2.63C356.494 1.08466 358.446 0.474663 360.642 0.799997C362.025 0.962662 363.448 1.77599 364.912 3.23999L388.824 26.786L412.736 3.23999C414.2 1.77599 415.664 0.962662 417.128 0.799997C419.243 0.474663 421.154 1.08466 422.862 2.63C424.57 4.094 425.424 5.924 425.424 8.12V66.68C425.424 68.7133 424.692 70.462 423.228 71.926C421.845 73.3087 420.137 74 418.104 74C416.071 74 414.322 73.3087 412.858 71.926C411.475 70.462 410.784 68.7133 410.784 66.68V25.566L394.192 41.792C392.565 43.4187 390.776 44.232 388.824 44.232C386.872 44.232 385.083 43.4187 383.456 41.792L366.864 25.566V66.68ZM483.843 66.68C483.843 64.6467 484.534 62.9387 485.917 61.556C487.381 60.092 489.13 59.36 491.163 59.36H513.245V25.688L467.373 71.56C465.584 73.3493 463.713 74.1627 461.761 74C457.369 73.6747 455.01 71.316 454.685 66.924C454.522 64.972 455.336 63.1013 457.125 61.312L515.197 3.23999C516.661 1.77599 518.125 0.962662 519.589 0.799997C521.785 0.474663 523.696 1.044 525.323 2.508C527.031 3.972 527.885 5.84266 527.885 8.12V66.68C527.885 68.7133 527.153 70.462 525.689 71.926C524.306 73.3087 522.598 74 520.565 74H491.163C489.13 74 487.381 73.3087 485.917 71.926C484.534 70.462 483.843 68.7133 483.843 66.68Z" fill="black"/>
</svg>
