<svg width="120" height="120" viewBox="0 0 120 120" fill="none" xmlns="http://www.w3.org/2000/svg">
<rect width="120" height="120" rx="24" fill="#E11D48"/>
<g filter="url(#filter0_d_6292_24340)">
<path d="M30.7199 23.4004H74.6399C76.6732 23.4004 78.3812 24.1324 79.7639 25.5964C81.2279 26.9791 81.9599 28.6871 81.9599 30.7204C81.9599 32.7537 81.2279 34.5024 79.7639 35.9664C78.3812 37.3491 76.6732 38.0404 74.6399 38.0404H38.0399V81.9604H89.2799C91.3132 81.9604 93.0212 82.6924 94.4039 84.1564C95.8679 85.5391 96.5999 87.2471 96.5999 89.2804C96.5999 91.3137 95.8679 93.0624 94.4039 94.5264C93.0212 95.9091 91.3132 96.6004 89.2799 96.6004H30.7199C28.6866 96.6004 26.9379 95.9091 25.4739 94.5264C24.0912 93.0624 23.3999 91.3137 23.3999 89.2804V30.7204C23.3999 28.6871 24.0912 26.9791 25.4739 25.5964C26.9379 24.1324 28.6866 23.4004 30.7199 23.4004Z" fill="white"/>
</g>
<defs>
<filter id="filter0_d_6292_24340" x="21.3999" y="21.4004" width="81.2" height="81.1992" filterUnits="userSpaceOnUse" color-interpolation-filters="sRGB">
<feFlood flood-opacity="0" result="BackgroundImageFix"/>
<feColorMatrix in="SourceAlpha" type="matrix" values="0 0 0 0 0 0 0 0 0 0 0 0 0 0 0 0 0 0 127 0" result="hardAlpha"/>
<feOffset dx="2" dy="2"/>
<feGaussianBlur stdDeviation="2"/>
<feComposite in2="hardAlpha" operator="out"/>
<feColorMatrix type="matrix" values="0 0 0 0 0 0 0 0 0 0 0 0 0 0 0 0 0 0 0.25 0"/>
<feBlend mode="normal" in2="BackgroundImageFix" result="effect1_dropShadow_6292_24340"/>
<feBlend mode="normal" in="SourceGraphic" in2="effect1_dropShadow_6292_24340" result="shape"/>
</filter>
</defs>
</svg>
